<svg width="38" height="42" viewBox="0 0 38 42" fill="none" xmlns="http://www.w3.org/2000/svg">
<path d="M0.372162 0L3.73809 37.7874L18.8512 42L34.0041 37.7727L37.3722 0H0.372162ZM30.3777 8.6583L29.2557 21.2457L29.2599 21.315L29.2557 21.4704L28.4573 30.2694L28.3711 31.0527L18.8722 33.6777L18.8638 33.6861L9.38369 31.0443L8.74076 23.7678H13.3883L13.7182 27.468L18.8722 28.8645L24.0429 27.4491L24.5892 21.4242H13.7812L13.6888 20.4057L13.4766 18.0201L13.3673 16.7391H25.0031L25.4275 12.0519H7.69862L7.60618 11.0334L7.39607 8.6457L7.28471 7.3647H30.489L30.3777 8.6583Z" fill="url(#paint0_linear_2039_57)"/>
<defs>
<linearGradient id="paint0_linear_2039_57" x1="18.8722" y1="0" x2="18.8722" y2="42" gradientUnits="userSpaceOnUse">
<stop stop-color="#FDFDFD"/>
<stop offset="1" stop-color="white" stop-opacity="0.18"/>
</linearGradient>
</defs>
</svg>
